<?xml version="1.0" encoding="UTF-8" standalone="no"?>
<!-- Created with Inkscape (http://www.inkscape.org/) -->

<svg
   xmlns:dc="http://purl.org/dc/elements/1.1/"
   xmlns:cc="http://creativecommons.org/ns#"
   xmlns:rdf="http://www.w3.org/1999/02/22-rdf-syntax-ns#"
   xmlns:svg="http://www.w3.org/2000/svg"
   xmlns="http://www.w3.org/2000/svg"
   xmlns:sodipodi="http://sodipodi.sourceforge.net/DTD/sodipodi-0.dtd"
   xmlns:inkscape="http://www.inkscape.org/namespaces/inkscape"
   width="130.05988mm"
   height="38.997784mm"
   viewBox="0 0 130.05988 38.997784"
   version="1.1"
   id="svg8"
   inkscape:version="0.92.2 (5c3e80d, 2017-08-06)"
   sodipodi:docname="Classic Zaffari.svg">
  <defs
     id="defs2" />
  <sodipodi:namedview
     id="base"
     pagecolor="#ffffff"
     bordercolor="#666666"
     borderopacity="1.0"
     inkscape:pageopacity="0.0"
     inkscape:pageshadow="2"
     inkscape:zoom="1.4142136"
     inkscape:cx="157.39872"
     inkscape:cy="89.506245"
     inkscape:document-units="mm"
     inkscape:current-layer="g6"
     showgrid="false"
     inkscape:window-width="1920"
     inkscape:window-height="1017"
     inkscape:window-x="-8"
     inkscape:window-y="-8"
     inkscape:window-maximized="1" />
  <metadata
     id="metadata5">
    <rdf:RDF>
      <cc:Work
         rdf:about="">
        <dc:format>image/svg+xml</dc:format>
        <dc:type
           rdf:resource="http://purl.org/dc/dcmitype/StillImage" />
        <dc:title></dc:title>
      </cc:Work>
    </rdf:RDF>
  </metadata>
  <g
     inkscape:label="Layer 1"
     inkscape:groupmode="layer"
     id="layer1"
     transform="translate(-42.753452,-139.30942)">
    <g
       style="fill-rule:evenodd"
       id="g867"
       transform="matrix(0.3527778,0,0,0.3527778,120.08349,123.89924)">
      <g
         id="g6"
         transform="matrix(2.9543476,0,0,2.9175468,-723.78218,-1128.5451)"
         style="stroke-width:0.34061226">
        <path
           style="fill:#135439;fill-opacity:1;stroke:none;stroke-width:0.34061226"
           d="m 246.913,429.083 c 0,-5.783 4.444,-10.653 9.679,-10.653 2.1,0 3.957,0.7 5.54,1.978 v -1.978 h 6.087 v 10.653 10.257 h -6.087 v -1.552 c -1.583,1.187 -3.44,1.887 -5.54,1.887 -5.235,0 -9.679,-4.748 -9.679,-10.592 z m 15.219,0 c 0,-2.74 -2.131,-4.779 -4.748,-4.779 -2.679,0 -4.901,2.039 -4.901,4.779 0,2.648 2.222,4.778 4.901,4.778 2.617,0 4.748,-2.13 4.748,-4.778 z m -64.8,0 c 0,-5.783 4.322,-10.653 9.709,-10.653 2.009,0 3.927,0.7 5.388,1.978 v -1.978 h 6.087 v 10.653 10.257 h -6.087 v -1.552 c -1.461,1.187 -3.379,1.887 -5.388,1.887 -5.387,0 -9.709,-4.748 -9.709,-10.592 z m 15.097,0 c 0,-2.74 -2.131,-4.779 -4.779,-4.779 -2.587,0 -4.718,2.039 -4.718,4.779 0,2.648 2.131,4.778 4.718,4.778 2.648,0 4.779,-2.13 4.779,-4.778 z m 18.049,10.257 -6.151,-0.011 0.002,-15.451 -3.343,0.005 c -0.003,-3.246 -0.003,-5.063 0,-5.452 h 3.341 v -3.608 c 0.183,-3.896 3.868,-6.833 7.429,-6.528 h 3.074 v 5.204 h -2.861 c -0.791,0 -1.491,0.518 -1.491,1.37 v 3.561 h 5.935 v -3.622 c 0.365,-3.896 3.926,-6.818 7.487,-6.513 h 3.074 v 5.204 h -2.861 c -0.761,0 -1.461,0.518 -1.552,1.37 v 3.561 h 3.865 v 5.448 h -3.865 v 15.462 h -6.148 v -15.462 h -5.935 z m 55.995,-20.902 h 6.028 l 0.006,20.902 -6.034,-0.005 z m -14.443,0.01 h 6.357 l -0.002,2.326 c 1.4,-1.553 3.013,-2.466 4.961,-2.466 h 1.217 v 5.814 h -1.217 c -2.618,0 -4.961,2.039 -4.961,4.139 v 0.426 10.653 h -6.362 z m -85.016,-3.762 h -16.222 v -6.391 h 26.266 v 6.391 c 0,0 -16.04,18.293 -16.04,18.262 0,0.061 15.371,0.061 15.371,0 v 6.331 h -25.597 v -6.331 z"
           id="path4"
           inkscape:connector-curvature="0" />
        <g
           id="g1042"
           transform="matrix(1.2115544,0,0,1.0862589,-61.103903,74.138568)"
           style="stroke-width:0.29690817">
          <g
             transform="translate(-3.63903,-0.00199157)"
             id="g1025"
             style="stroke-width:0.29690817">
            <path
               style="fill:#d4202c;fill-rule:evenodd;stroke:none;stroke-width:0.29690817"
               d="m 292.3242,309.32331 -9.8e-4,2.489 c 0,1.575 1.29452,2.856 2.86952,2.856 1.574,0 2.85,-1.281 2.85,-2.856 v -2.48071 z"
               id="path2-8-7"
               inkscape:connector-curvature="0"
               sodipodi:nodetypes="ccsscc" />
            <path
               style="fill:#135439;fill-opacity:1;fill-rule:evenodd;stroke:none;stroke-width:0.29690817"
               d="m 294.31372,301.6306 h -4.548 l 2.577,7.701 h 5.70002 z"
               id="path2-8-6"
               inkscape:connector-curvature="0"
               sodipodi:nodetypes="ccccc" />
          </g>
          <g
             transform="translate(1.359375)"
             id="g1009"
             style="stroke-width:0.29690817">
            <path
               style="fill:#d4202c;fill-rule:evenodd;stroke:none;stroke-width:0.29690817"
               d="m 269.60272,309.32574 7.5e-4,2.489 c 0,1.575 -1.27601,2.856 -2.85101,2.856 -1.57398,0 -2.84998,-1.281 -2.84998,-2.856 v -2.489 z"
               id="path2-7-0"
               inkscape:connector-curvature="0"
               sodipodi:nodetypes="ccsscc" />
            <path
               style="fill:#135439;fill-opacity:1;fill-rule:evenodd;stroke:none;stroke-width:0.29690817"
               d="m 267.63172,301.6306 h 4.548 l -2.577,7.701 h -5.7 z"
               id="path2-4-9"
               inkscape:connector-curvature="0"
               sodipodi:nodetypes="ccccc" />
          </g>
          <g
             id="g1013"
             style="stroke-width:0.29690817">
            <path
               style="fill:#135439;fill-opacity:1;fill-rule:evenodd;stroke:none;stroke-width:0.29690817"
               d="m 276.63772,311.82074 c 0,1.574 -1.276,2.85 -2.85,2.85 -1.574,0 -2.85,-1.276 -2.85,-2.85 l -0.001,-2.555 5.701,-0.004 z"
               id="path2-4-5"
               inkscape:connector-curvature="0"
               sodipodi:nodetypes="sscccs" />
            <path
               style="fill:#d4202c;fill-opacity:1;fill-rule:evenodd;stroke:none;stroke-width:0.29690817"
               d="m 270.93672,309.2716 2.304,-7.641 h 4.427 l -1.03,7.637 z"
               id="path2-9-02"
               inkscape:connector-curvature="0"
               inkscape:transform-center-x="7.4835468"
               inkscape:transform-center-y="-2.5056518"
               sodipodi:nodetypes="ccccc" />
          </g>
          <g
             transform="translate(-2.305)"
             id="g1021"
             style="stroke-width:0.29690817">
            <path
               style="fill:#135439;fill-opacity:1;fill-rule:evenodd;stroke:none;stroke-width:0.29690817"
               d="m 285.30772,309.26174 -9.8e-4,2.489 c 0,1.575 1.276,2.856 2.851,2.856 1.574,0 2.85,-1.281 2.85,-2.856 v -2.489 z"
               id="path2-9-6-0"
               inkscape:connector-curvature="0"
               inkscape:transform-center-x="7.4835468"
               inkscape:transform-center-y="-2.5056518"
               sodipodi:nodetypes="ccsscc" />
            <path
               style="fill:#d4202c;fill-rule:evenodd;stroke:none;stroke-width:0.29690817"
               d="m 291.00869,309.2716 -2.30397,-7.641 h -4.427 l 1.03,7.637 z"
               id="path2-9-6-3"
               inkscape:connector-curvature="0"
               inkscape:transform-center-x="7.4835468"
               inkscape:transform-center-y="-2.5056518"
               sodipodi:nodetypes="ccccc" />
          </g>
          <g
             transform="translate(-1.183)"
             id="g1017"
             style="stroke-width:0.29690817">
            <path
               style="fill:#d4202c;fill-rule:evenodd;stroke:none;stroke-width:0.29690817"
               d="m 277.82072,309.26142 6.365,-0.0293 0.006,2.34461 0.003,0.30228 c 0,1.593 -1.60284,2.79155 -3.16085,2.79155 -1.55899,0 -3.21399,-1.257 -3.21399,-2.815 7.5e-4,-0.124 -0.0106,-0.22079 -0.0133,-0.30972 0.002,-0.75779 0.0133,-2.31418 0.0133,-2.31418 z"
               id="path2-9-0"
               inkscape:connector-curvature="0"
               inkscape:transform-center-x="7.4835468"
               inkscape:transform-center-y="-2.5056518"
               sodipodi:nodetypes="ccccscccc" />
            <path
               style="fill:#135439;fill-opacity:1;fill-rule:evenodd;stroke:none;stroke-width:0.29690817"
               d="m 278.85072,301.6306 h 4.33119 c 0.28195,2.23411 0.98969,7.00777 1.03,7.63114 l -6.39119,-3.2e-4 c 0.13058,-2.54562 0.69845,-5.22019 1.03,-7.63114 z"
               id="path2-7-4"
               inkscape:connector-curvature="0"
               sodipodi:nodetypes="cccccc" />
          </g>
        </g>
      </g>
    </g>
  </g>
</svg>
